<svg className='left-decoration' xmlns="http://www.w3.org/2000/svg" width={svgWidth} height={svgHeight} viewBox="0 0 171 147" fill={isSpfxTheme != "" ? (window as any).__themeState__.theme["neutralDark"] : "black"}> <path opacity="0.6" d="M-48.9392 98.7344L-39.0715 95.7048L16.7281 144.234C19.0597 146.388 22.3544 146.806 25.3098 145.505L26.5474 144.545C28.4038 143.105 29.6193 140.842 29.7376 138.439L28.858 64.4917L29.0635 64.3346L93.896 100.242C96.6854 101.711 99.867 101.555 102.342 99.6351L102.548 99.4755C105.022 97.5569 105.965 94.5143 105.238 91.4459L88.6572 18.1177L88.863 17.9581L159.941 39.7757C162.457 40.4651 165.112 40.0583 167.175 38.459L168.412 37.4992C170.406 34.9619 170.824 31.6671 169.318 28.8714L135.745 -39.5375L142.856 -51.6576C144.989 -55.2937 143.714 -59.9188 140.444 -62.0066C140.285 -62.2124 140.285 -62.2124 139.918 -62.26C136.282 -64.3928 131.657 -63.1173 129.569 -59.8481C129.363 -59.6885 129.364 -59.6885 129.316 -59.322C115 -34.3501 97.0479 -11.5107 76.1234 8.34899C74.9334 8.94232 73.6958 9.90215 72.9832 11.1139C65.7867 18.0156 58.4785 24.3448 50.6425 30.4219C19.8714 54.6155 -15.3314 72.6701 -53.1553 83.5112C-57.2056 84.6748 -59.7974 88.9965 -58.4771 93.2548C-57.3152 97.3087 -52.9935 99.9006 -48.9407 98.7374L-48.9392 98.7344ZM13.8992 121.001L-21.9444 89.6862C-9.80727 84.8966 1.84809 79.4896 13.231 73.3027L13.8992 121.001ZM147.243 19.5707L101.078 5.17801C109.902 -4.30718 118.042 -14.2515 125.653 -24.4482L147.243 19.5707ZM75.2245 30.1805L86.1203 77.8699L43.8806 54.4888C49.3557 50.904 54.8776 46.9512 60.2381 42.7939C65.6001 38.6355 70.3896 34.5915 75.2241 30.1808L75.2245 30.1805Z" /> </svg>