<svg width="28" height="28" viewBox="0 0 28 28" fill="none" xmlns="http://www.w3.org/2000/svg"><g clip-path="url(#clip0_686_3832)"><path d="M20.1157 18.5305C20.276 18.6908 20.3402 18.8831 20.276 19.1073C20.244 19.3317 20.0837 19.4918 19.8915 19.5879L5.62918 25.7095L0.885835 27.7287C0.789702 27.7607 0.725539 27.7929 0.629406 27.7929C0.46911 27.7929 0.308814 27.7287 0.180717 27.6006C-0.0115488 27.4083 -0.0437417 27.12 0.0526144 26.8955L8.22538 7.85779C8.32151 7.66552 8.48181 7.50522 8.70604 7.47325C8.93049 7.44128 9.12275 7.50522 9.28282 7.63355L20.1157 18.5305ZM28 5.64638C28 6.15924 27.8077 6.63988 27.4232 6.99249C27.0707 7.34505 26.59 7.56927 26.0771 7.56927C25.5643 7.56927 25.0836 7.37701 24.731 6.99249C24.3784 6.63992 24.1542 6.15924 24.1542 5.64638C24.1542 5.13353 24.3465 4.65289 24.731 4.30028C25.0836 3.94772 25.5643 3.7235 26.0771 3.7235C26.59 3.7235 27.0706 3.91576 27.4232 4.30028C27.8077 4.65284 28 5.1337 28 5.64638V5.64638ZM26.7181 5.64638C26.7181 5.48609 26.654 5.32579 26.5258 5.19769C26.3977 5.06959 26.2375 5.00543 26.0772 5.00543C25.9169 5.00543 25.7566 5.06959 25.6285 5.19769C25.5004 5.3258 25.4362 5.48609 25.4362 5.64638C25.4362 5.80667 25.5004 5.96698 25.6285 6.09507C25.8849 6.3515 26.3016 6.3515 26.5259 6.09507C26.654 5.99894 26.7181 5.83887 26.7181 5.64638H26.7181ZM19.6671 13.5627C18.93 12.8257 18.93 11.6077 19.6671 10.8384C20.0197 10.4858 20.5003 10.2616 21.0132 10.2616C21.5261 10.2616 22.0067 10.4539 22.3593 10.8384C22.7119 11.1909 22.9361 11.6716 22.9361 12.1845C22.9361 12.6973 22.7438 13.178 22.3593 13.5306C22.0067 13.8831 21.5261 14.1074 21.0132 14.1074C20.5004 14.1078 20.0197 13.9153 19.6671 13.5628V13.5627ZM20.5645 12.6334C20.8209 12.8898 21.2377 12.8898 21.4619 12.6334C21.59 12.5053 21.6542 12.345 21.6542 12.1847C21.6542 12.0244 21.59 11.8641 21.4619 11.736C21.3338 11.6079 21.1735 11.5438 21.0132 11.5438C20.8529 11.5438 20.6926 11.6079 20.5645 11.736C20.3401 11.9925 20.3401 12.409 20.5645 12.6334L20.5645 12.6334ZM14.475 7.89006C14.1224 7.5375 13.8982 7.05681 13.8982 6.54396C13.8982 6.0311 14.0905 5.55046 14.475 5.19785C14.8276 4.84529 15.3082 4.62107 15.8211 4.62107C16.334 4.62107 16.8146 4.81333 17.1672 5.19785C17.5198 5.55042 17.744 6.0311 17.744 6.54396C17.744 7.05681 17.5517 7.53745 17.1672 7.89006C16.8146 8.24262 16.334 8.46684 15.8211 8.46684C15.3085 8.46684 14.8276 8.24261 14.475 7.89006ZM15.1801 6.51179C15.1801 6.67209 15.2443 6.83238 15.3724 6.96048C15.6288 7.21691 16.0455 7.21691 16.2698 6.96048C16.3979 6.83238 16.462 6.67208 16.462 6.51179C16.462 6.3515 16.3979 6.1912 16.2698 6.0631C16.1417 5.935 15.9814 5.87084 15.8211 5.87084C15.6608 5.87084 15.5005 5.935 15.3724 6.0631C15.2443 6.19143 15.1801 6.3515 15.1801 6.51179H15.1801ZM19.8915 7.15274C20.0518 7.15274 20.212 7.08857 20.3401 6.96047L21.6862 5.61437C22.6797 4.62087 22.6797 2.98615 21.6862 1.99266C21.4298 1.73623 21.0453 1.73623 20.7888 1.99266C20.5324 2.24909 20.5324 2.6336 20.7888 2.89006C21.3017 3.40291 21.3017 4.20417 20.7888 4.71702L19.4427 6.06313C19.1863 6.31956 19.1863 6.70407 19.4427 6.96053C19.5711 7.08885 19.7311 7.15279 19.8914 7.15279L19.8915 7.15274ZM22.3914 15.3575L21.0453 16.7356C20.7888 16.992 20.7888 17.3765 21.0453 17.633C21.1734 17.7611 21.3337 17.8253 21.4939 17.8253C21.6542 17.8253 21.8145 17.7611 21.9426 17.633L23.2887 16.2869C23.8016 15.774 24.6028 15.774 25.1157 16.2869C25.3721 16.5433 25.7566 16.5433 26.0131 16.2869C26.2696 16.0305 26.2695 15.6459 26.0131 15.3895C25.0196 14.3638 23.3849 14.3638 22.3914 15.3575L22.3914 15.3575ZM10.5969 6.92839C10.7572 6.92839 10.9175 6.86422 11.0456 6.73612L12.3917 5.39002C12.8724 4.90936 13.1288 4.26815 13.1288 3.56305C13.1288 2.85795 12.8724 2.21695 12.3917 1.73608C12.1353 1.47965 11.7508 1.47965 11.4943 1.73608C11.2379 1.99251 11.2379 2.37703 11.4943 2.63349C11.7508 2.88991 11.8789 3.21027 11.8789 3.53089C11.8789 3.85148 11.7508 4.20405 11.4943 4.42829L10.1482 5.83878C9.8918 6.0952 9.8918 6.47972 10.1482 6.73618C10.2763 6.86428 10.4366 6.92844 10.5969 6.92844L10.5969 6.92839ZM26.622 11.4795C26.622 11.4475 26.59 11.4153 26.5578 11.3834C26.5258 11.3514 26.4936 11.3192 26.4936 11.2872C26.2692 11.0628 25.8205 11.0628 25.5962 11.2872C25.5643 11.3192 25.5321 11.3514 25.5321 11.3834C25.5001 11.4153 25.5001 11.4475 25.4679 11.4795C25.4359 11.5115 25.4359 11.5437 25.4359 11.6076V11.7357C25.4359 11.896 25.5001 12.0563 25.6282 12.1844C25.7563 12.3125 25.9166 12.3767 26.0769 12.3767C26.2372 12.3767 26.3975 12.3125 26.5256 12.1844C26.6537 12.0563 26.7179 11.896 26.7179 11.7357V11.6076C26.6539 11.5756 26.6219 11.5437 26.6219 11.4795H26.622ZM16.3018 11.1589C16.2699 11.1269 16.2377 11.1269 16.1737 11.1269C15.9493 11.095 15.757 11.1589 15.597 11.2872C15.4689 11.4153 15.4047 11.5756 15.4047 11.7359V11.864C15.4047 11.896 15.4367 11.9282 15.4367 11.9921C15.4367 12.0563 15.4686 12.0563 15.5008 12.1202C15.5328 12.1522 15.5328 12.1844 15.565 12.2164C15.6931 12.3445 15.8534 12.4086 16.0137 12.4086H16.1418C16.1738 12.4086 16.2059 12.3767 16.2699 12.3767C16.3019 12.3447 16.334 12.3447 16.366 12.3125C16.398 12.2805 16.4302 12.2483 16.4622 12.2483C16.4941 12.2164 16.5263 12.1842 16.5263 12.1522C16.5583 12.1202 16.5583 12.088 16.5905 12.0241C16.6224 11.9599 16.6224 11.9599 16.6224 11.896V11.7679C16.6224 11.6076 16.5583 11.4473 16.4302 11.3192C16.3982 11.2872 16.366 11.255 16.334 11.255C16.366 11.1911 16.3338 11.1589 16.3019 11.1589L16.3018 11.1589ZM15.9173 2.47334C15.9173 2.50531 15.9493 2.5375 15.9815 2.60144C16.0135 2.63341 16.0456 2.6656 16.0456 2.69757C16.0776 2.72954 16.1098 2.76174 16.1418 2.76174C16.1737 2.79371 16.2059 2.79371 16.2379 2.8259C16.2699 2.8259 16.3021 2.85787 16.366 2.85787H16.4941C16.6544 2.85787 16.8147 2.79371 16.9428 2.6656C16.9748 2.63363 17.007 2.60144 17.007 2.56947C17.0389 2.5375 17.0389 2.50531 17.0711 2.44137C17.0711 2.4094 17.1031 2.3772 17.1031 2.31326V2.18516V2.05706C17.1031 2.02509 17.0711 1.96093 17.0711 1.92896C17.0392 1.89699 17.0392 1.86479 17.007 1.83282C16.975 1.80085 16.9428 1.76866 16.9428 1.73669C16.9108 1.70472 16.8786 1.67253 16.8467 1.67253C16.8147 1.64056 16.7825 1.64056 16.7505 1.60836C16.7186 1.60836 16.6864 1.57639 16.6224 1.57639C16.5583 1.54443 16.4621 1.54443 16.366 1.57639C16.334 1.57639 16.3018 1.60836 16.2379 1.60836C16.2059 1.64033 16.1737 1.64033 16.1418 1.67253C16.1098 1.7045 16.0776 1.7045 16.0456 1.73669C16.0137 1.76866 15.9815 1.80085 15.9815 1.83282C15.9495 1.86479 15.9495 1.89699 15.9173 1.92896C15.8853 1.96093 15.8853 1.99312 15.8853 2.05706V2.18516V2.31326C15.8851 2.3772 15.8851 2.44114 15.9173 2.47334L15.9173 2.47334Z" fill="#201F1E"/></g><defs><clipPath id="clip0_686_3832"><rect width="28.0007" height="28.0007" fill="white" transform="translate(-0.000976562 -0.000366211)"/></clipPath></defs></svg>